<mxfile host="app.diagrams.net" agent="Mozilla/5.0 (Macintosh; Intel Mac OS X 10.15; rv:131.0) Gecko/20100101 Firefox/131.0" version="24.8.3">
  <diagram name="Page-1" id="bimHfKGsnC9YVb5j-NAA">
    <mxGraphModel dx="1584" dy="1411" grid="1" gridSize="10" guides="1" tooltips="1" connect="1" arrows="1" fold="1" page="1" pageScale="1" pageWidth="827" pageHeight="1169" math="0" shadow="0">
      <root>
        <mxCell id="0" />
        <mxCell id="1" parent="0" />
        <mxCell id="8PmAt-z4PRsXIaI4Q4uZ-22" value="" style="rounded=0;whiteSpace=wrap;html=1;strokeColor=none;" vertex="1" parent="1">
          <mxGeometry x="240" y="280" width="1080" height="520" as="geometry" />
        </mxCell>
        <mxCell id="8PmAt-z4PRsXIaI4Q4uZ-1" value="AWS Morocco Account" style="points=[[0,0],[0.25,0],[0.5,0],[0.75,0],[1,0],[1,0.25],[1,0.5],[1,0.75],[1,1],[0.75,1],[0.5,1],[0.25,1],[0,1],[0,0.75],[0,0.5],[0,0.25]];outlineConnect=0;gradientColor=none;html=1;whiteSpace=wrap;fontSize=12;fontStyle=0;container=1;pointerEvents=0;collapsible=0;recursiveResize=0;shape=mxgraph.aws4.group;grIcon=mxgraph.aws4.group_account;strokeColor=#CD2264;fillColor=none;verticalAlign=top;align=left;spacingLeft=30;fontColor=#CD2264;dashed=0;" vertex="1" parent="1">
          <mxGeometry x="480" y="320" width="810" height="440" as="geometry" />
        </mxCell>
        <mxCell id="8PmAt-z4PRsXIaI4Q4uZ-2" value="VPC" style="points=[[0,0],[0.25,0],[0.5,0],[0.75,0],[1,0],[1,0.25],[1,0.5],[1,0.75],[1,1],[0.75,1],[0.5,1],[0.25,1],[0,1],[0,0.75],[0,0.5],[0,0.25]];outlineConnect=0;gradientColor=none;html=1;whiteSpace=wrap;fontSize=12;fontStyle=0;container=1;pointerEvents=0;collapsible=0;recursiveResize=0;shape=mxgraph.aws4.group;grIcon=mxgraph.aws4.group_vpc2;strokeColor=#8C4FFF;fillColor=none;verticalAlign=top;align=left;spacingLeft=30;fontColor=#AAB7B8;dashed=0;" vertex="1" parent="8PmAt-z4PRsXIaI4Q4uZ-1">
          <mxGeometry x="40" y="40" width="720" height="370" as="geometry" />
        </mxCell>
        <mxCell id="8PmAt-z4PRsXIaI4Q4uZ-3" value="PrivateSubnet-1" style="points=[[0,0],[0.25,0],[0.5,0],[0.75,0],[1,0],[1,0.25],[1,0.5],[1,0.75],[1,1],[0.75,1],[0.5,1],[0.25,1],[0,1],[0,0.75],[0,0.5],[0,0.25]];outlineConnect=0;gradientColor=none;html=1;whiteSpace=wrap;fontSize=12;fontStyle=0;container=1;pointerEvents=0;collapsible=0;recursiveResize=0;shape=mxgraph.aws4.group;grIcon=mxgraph.aws4.group_security_group;grStroke=0;strokeColor=#00A4A6;fillColor=#E6F6F7;verticalAlign=top;align=left;spacingLeft=30;fontColor=#147EBA;dashed=0;" vertex="1" parent="8PmAt-z4PRsXIaI4Q4uZ-2">
          <mxGeometry x="200" y="40" width="200" height="280" as="geometry" />
        </mxCell>
        <mxCell id="8PmAt-z4PRsXIaI4Q4uZ-15" value="&lt;div&gt;Client VPN&lt;/div&gt;&lt;div&gt;Network Interface&lt;br&gt;&lt;/div&gt;" style="sketch=0;outlineConnect=0;fontColor=#232F3E;gradientColor=none;fillColor=#8C4FFF;strokeColor=none;dashed=0;verticalLabelPosition=bottom;verticalAlign=top;align=center;html=1;fontSize=12;fontStyle=0;aspect=fixed;pointerEvents=1;shape=mxgraph.aws4.elastic_network_interface;" vertex="1" parent="8PmAt-z4PRsXIaI4Q4uZ-3">
          <mxGeometry x="78" y="118" width="44" height="44" as="geometry" />
        </mxCell>
        <mxCell id="8PmAt-z4PRsXIaI4Q4uZ-4" value="PrivateSubnet-2" style="points=[[0,0],[0.25,0],[0.5,0],[0.75,0],[1,0],[1,0.25],[1,0.5],[1,0.75],[1,1],[0.75,1],[0.5,1],[0.25,1],[0,1],[0,0.75],[0,0.5],[0,0.25]];outlineConnect=0;gradientColor=none;html=1;whiteSpace=wrap;fontSize=12;fontStyle=0;container=1;pointerEvents=0;collapsible=0;recursiveResize=0;shape=mxgraph.aws4.group;grIcon=mxgraph.aws4.group_security_group;grStroke=0;strokeColor=#00A4A6;fillColor=#E6F6F7;verticalAlign=top;align=left;spacingLeft=30;fontColor=#147EBA;dashed=0;" vertex="1" parent="8PmAt-z4PRsXIaI4Q4uZ-2">
          <mxGeometry x="480" y="40" width="200" height="280" as="geometry" />
        </mxCell>
        <mxCell id="8PmAt-z4PRsXIaI4Q4uZ-16" value="" style="sketch=0;points=[[0,0,0],[0.25,0,0],[0.5,0,0],[0.75,0,0],[1,0,0],[0,1,0],[0.25,1,0],[0.5,1,0],[0.75,1,0],[1,1,0],[0,0.25,0],[0,0.5,0],[0,0.75,0],[1,0.25,0],[1,0.5,0],[1,0.75,0]];outlineConnect=0;fontColor=#232F3E;fillColor=#ED7100;strokeColor=#ffffff;dashed=0;verticalLabelPosition=bottom;verticalAlign=top;align=center;html=1;fontSize=12;fontStyle=0;aspect=fixed;shape=mxgraph.aws4.resourceIcon;resIcon=mxgraph.aws4.ec2;" vertex="1" parent="8PmAt-z4PRsXIaI4Q4uZ-4">
          <mxGeometry x="76" y="42" width="48" height="48" as="geometry" />
        </mxCell>
        <mxCell id="8PmAt-z4PRsXIaI4Q4uZ-17" value="" style="sketch=0;points=[[0,0,0],[0.25,0,0],[0.5,0,0],[0.75,0,0],[1,0,0],[0,1,0],[0.25,1,0],[0.5,1,0],[0.75,1,0],[1,1,0],[0,0.25,0],[0,0.5,0],[0,0.75,0],[1,0.25,0],[1,0.5,0],[1,0.75,0]];outlineConnect=0;fontColor=#232F3E;fillColor=#C925D1;strokeColor=#ffffff;dashed=0;verticalLabelPosition=bottom;verticalAlign=top;align=center;html=1;fontSize=12;fontStyle=0;aspect=fixed;shape=mxgraph.aws4.resourceIcon;resIcon=mxgraph.aws4.rds;" vertex="1" parent="8PmAt-z4PRsXIaI4Q4uZ-4">
          <mxGeometry x="76" y="116" width="48" height="48" as="geometry" />
        </mxCell>
        <mxCell id="8PmAt-z4PRsXIaI4Q4uZ-18" value="" style="sketch=0;points=[[0,0,0],[0.25,0,0],[0.5,0,0],[0.75,0,0],[1,0,0],[0,1,0],[0.25,1,0],[0.5,1,0],[0.75,1,0],[1,1,0],[0,0.25,0],[0,0.5,0],[0,0.75,0],[1,0.25,0],[1,0.5,0],[1,0.75,0]];outlineConnect=0;fontColor=#232F3E;fillColor=#C925D1;strokeColor=#ffffff;dashed=0;verticalLabelPosition=bottom;verticalAlign=top;align=center;html=1;fontSize=12;fontStyle=0;aspect=fixed;shape=mxgraph.aws4.resourceIcon;resIcon=mxgraph.aws4.memorydb_for_redis;" vertex="1" parent="8PmAt-z4PRsXIaI4Q4uZ-4">
          <mxGeometry x="74" y="190" width="50" height="50" as="geometry" />
        </mxCell>
        <mxCell id="8PmAt-z4PRsXIaI4Q4uZ-6" value="Route Table" style="outlineConnect=0;dashed=0;verticalLabelPosition=bottom;verticalAlign=top;align=center;html=1;shape=mxgraph.aws3.route_table;fillColor=#F58536;gradientColor=none;" vertex="1" parent="8PmAt-z4PRsXIaI4Q4uZ-2">
          <mxGeometry x="20" y="280" width="43.48" height="40" as="geometry" />
        </mxCell>
        <mxCell id="8PmAt-z4PRsXIaI4Q4uZ-19" style="edgeStyle=orthogonalEdgeStyle;rounded=0;orthogonalLoop=1;jettySize=auto;html=1;dashed=1;strokeWidth=1;fillColor=#bac8d3;strokeColor=#23445d;" edge="1" parent="8PmAt-z4PRsXIaI4Q4uZ-2" source="8PmAt-z4PRsXIaI4Q4uZ-5" target="8PmAt-z4PRsXIaI4Q4uZ-15">
          <mxGeometry relative="1" as="geometry" />
        </mxCell>
        <mxCell id="8PmAt-z4PRsXIaI4Q4uZ-5" value="" style="sketch=0;points=[[0,0,0],[0.25,0,0],[0.5,0,0],[0.75,0,0],[1,0,0],[0,1,0],[0.25,1,0],[0.5,1,0],[0.75,1,0],[1,1,0],[0,0.25,0],[0,0.5,0],[0,0.75,0],[1,0.25,0],[1,0.5,0],[1,0.75,0]];outlineConnect=0;fontColor=#232F3E;fillColor=#8C4FFF;strokeColor=#ffffff;dashed=0;verticalLabelPosition=bottom;verticalAlign=top;align=center;html=1;fontSize=12;fontStyle=0;aspect=fixed;shape=mxgraph.aws4.resourceIcon;resIcon=mxgraph.aws4.client_vpn;" vertex="1" parent="8PmAt-z4PRsXIaI4Q4uZ-2">
          <mxGeometry x="63.48000000000002" y="145" width="70" height="70" as="geometry" />
        </mxCell>
        <mxCell id="8PmAt-z4PRsXIaI4Q4uZ-9" style="edgeStyle=orthogonalEdgeStyle;rounded=0;orthogonalLoop=1;jettySize=auto;html=1;entryX=0.25;entryY=1;entryDx=0;entryDy=0;entryPerimeter=0;dashed=1;" edge="1" parent="8PmAt-z4PRsXIaI4Q4uZ-2" source="8PmAt-z4PRsXIaI4Q4uZ-6" target="8PmAt-z4PRsXIaI4Q4uZ-5">
          <mxGeometry relative="1" as="geometry" />
        </mxCell>
        <mxCell id="8PmAt-z4PRsXIaI4Q4uZ-10" value="Auth Rules" style="outlineConnect=0;dashed=0;verticalLabelPosition=bottom;verticalAlign=top;align=center;html=1;shape=mxgraph.aws3.policy;fillColor=#5294CF;gradientColor=none;" vertex="1" parent="8PmAt-z4PRsXIaI4Q4uZ-2">
          <mxGeometry x="130" y="280" width="30.83" height="50" as="geometry" />
        </mxCell>
        <mxCell id="8PmAt-z4PRsXIaI4Q4uZ-11" style="edgeStyle=orthogonalEdgeStyle;rounded=0;orthogonalLoop=1;jettySize=auto;html=1;entryX=0.75;entryY=1;entryDx=0;entryDy=0;entryPerimeter=0;dashed=1;" edge="1" parent="8PmAt-z4PRsXIaI4Q4uZ-2" source="8PmAt-z4PRsXIaI4Q4uZ-10" target="8PmAt-z4PRsXIaI4Q4uZ-5">
          <mxGeometry relative="1" as="geometry" />
        </mxCell>
        <mxCell id="8PmAt-z4PRsXIaI4Q4uZ-20" style="edgeStyle=orthogonalEdgeStyle;rounded=0;orthogonalLoop=1;jettySize=auto;html=1;entryX=0;entryY=0.5;entryDx=0;entryDy=0;entryPerimeter=0;dashed=1;" edge="1" parent="8PmAt-z4PRsXIaI4Q4uZ-2" source="8PmAt-z4PRsXIaI4Q4uZ-15" target="8PmAt-z4PRsXIaI4Q4uZ-16">
          <mxGeometry relative="1" as="geometry" />
        </mxCell>
        <mxCell id="8PmAt-z4PRsXIaI4Q4uZ-13" style="edgeStyle=orthogonalEdgeStyle;rounded=0;orthogonalLoop=1;jettySize=auto;html=1;dashed=1;strokeWidth=2;" edge="1" parent="1" source="8PmAt-z4PRsXIaI4Q4uZ-12" target="8PmAt-z4PRsXIaI4Q4uZ-5">
          <mxGeometry relative="1" as="geometry" />
        </mxCell>
        <mxCell id="8PmAt-z4PRsXIaI4Q4uZ-12" value="Remote User" style="points=[[0.35,0,0],[0.98,0.51,0],[1,0.71,0],[0.67,1,0],[0,0.795,0],[0,0.65,0]];verticalLabelPosition=bottom;sketch=0;html=1;verticalAlign=top;aspect=fixed;align=center;pointerEvents=1;shape=mxgraph.cisco19.user;fillColor=#005073;strokeColor=none;" vertex="1" parent="1">
          <mxGeometry x="270" y="502" width="75" height="75" as="geometry" />
        </mxCell>
        <mxCell id="8PmAt-z4PRsXIaI4Q4uZ-14" value="" style="shape=image;verticalLabelPosition=bottom;labelBackgroundColor=default;verticalAlign=top;aspect=fixed;imageAspect=0;image=data:image/webp,UklGRkomAABXRUJQVlA4WAoAAAAQAAAAfwEAfwEAQUxQSKwLAAABDm8QABmStm3bTK8PndjjNPaMveK0bdu2bdu2bdu2bdu2uZzpiKN7tmunu6vq1zWZnZVZESHJbSRJktwvftGou2fztKyIB4DGu9yEMP/r5GJfgI03BzDVFZWQwE1VCtjCJ4YRB/0ZDooIuYOgxJY9BAyw9kdhRapEKEC8dvT3ULele8lcD4XVgQrFGhySnyty2LNkkvP6w8HYVDMI9Z83iSU7iKF115+j3+mEFqBi19ZxkA1TK74d+5cusdEBvV3YLoQcwEx3heQqpNTgiAopBRY7MEPnyT01EsVBqAe9te7AAUHz1t/Gdt1hNAqQ5+ZSQHYqWfyVsJosUXEgyeKRwz4l3TdUE6hhQXhDt2U6iGD0kX+HMjQ1PEjIA1skRE1Q3ujL6Emjji1AuFG5xIEtSuZ7KvY/el0bBIkLK3RwAFNcXglFqO4tQlCw9UUhxNCx/28JVJ0hv3+H1UHEAKt/EAs5Ump0QMXqJWsbykwwWzzdTrHBIT04a+SwM8nE5/QqSFJxeHAW5iCG1l1+rJkyMPzIhWVByAjLvZFEpQ29wRFkU9T0d4YUn7IyEN2J1gQxw3gn/pdAZQRyjNDEViRp3uqr4e26ae7AxVYyzmE/kkVfiL1byGCjAPlF7caBHMA018bS7Yw2CKFji0nEmWHU4X8pSDLnYDfKUhwBA27wqYoki45igygRtxHJvI+F1WRJNh1Ij4F1ODiAyS92CpIMO9zFk5cCtgqqbZ/fo3Q7Ny1Avxdt1gARA6z2XtKumwcI6L1Vo7/vdiCZ9b6k15p5gZDuiyXi5peMPaNPQZIbB54x1vAOYmjZ8YckKm8Q79gyDjI5tUyUbsemnA5RIl5EkKmp6W4NE6icQlR4I0NMMN5xsXQ79y1C/x4zvnEHYihv9nVSyJFnCOhrjqIQs0oWeS5p1807hPScixzmpLquqihIcu8A32VIiBlGHhwd2K6SVhpFyB1cALMJQ451PlaR6MLh1zFdFFJmgjlTTLdzkogXEHDZaOn2BX3RrqutFiG8wFyJOBG07/lzzaS1oeB2CMhEkjKs9G5SxKQrCIhd9C+0eagZ74l9lE6DDY6IZzQMxASdp/cmUNqD/OmdBhmIoWW76MA2abQFyG9nikQcGWHJV4b/pKGnpxBZ0gRRCHIA/7sl9gdZuw1CdJP+j48zw+ij/1GQaNSBR7PWo5CAgDb9Yni7rg53YL9pUCLSt2TBp1Vea+rWgSRe0w4OYMorBhUkWnaIm1LDOzAxdBz0Z/QMZYB2QH8e0K7ZHbg81LWgBughLzYt61Qyx4NJrzX1DyE9OEfk0OaB7XMHol3XKC1CDifWooMIWvf4KYkyB/TTHkUpIP1RK7xVz5BDv1HIWytEkObS7TtVQg6TOIjudBqDmGDCk3oUJMZx9PgJNTUQA22dXrqt20Scg1ITaSndfjF2U4fxGhzSi7FEXDdU9/VVBYnBHHh9t1YgZhh9+N8KEsM5vGNoYo0c2P58eLuuqXZgjh0f14Nk/qdq022zDkg8f+TIv2SqSwYUJMZ0OJ4i5w4i6Nj3NwWJUR2/ug4IKNfXgn5Y74jJRGHUh7GLTXN7LeiDKhITO4SjT2fkMt0+O/oMdZUM3yhCfWe73DmIodg5SrfJCjpKxHcu8gTFlr1l31SRmN3x+jIl4HJ+JNPeEfvjZhENQuSnzYmDCSYY5rWgBt+BHU+QAwcx8BZfJ1E2AbkteJwj8we2X4il21bS4JB87Ph4pg9sX1tRkFiGA1xXZiFmGHnoXwoSC3EwFtDE2Uy31/8klm5bTqMD+mT9KBHPnmSex5M+SmczENLjPnJkSzKp0rWgVuNwF0+aIQcztO/9S70jJhsIo34BzoijzACrvqsisSEHr5qFKAQ5gFnujd3UYV2NguRnST0KYYLOM2IHtq2sRchjZ6oOYmjZ6YeaydoG3iE6Pp7itaCvJlF2BvkirR0YYdqbq+QqZHkNg4Q3T1tKoRBGHttDlUGywBagHl/Uf2BYkwYdWWI7IQ9c/1o7dFVbLHS0djpVsceChv/V8L8a/lfD/2r4Xw3/q+F/Nfyvhv/V8L8a/lfD/2r4Xw3/q+F/Nfyvhv/1f2PK2WO5dMqH4myxnJCvf5WhOLaHKoM2WALU44sSAtR/mPbmKg1WbK9ACG+eNppSKEZY5lWqDlrdL4mC5IvYb2EqHTC07PBDOGhxkAjxDlBqCiC1ZoLOM3qtbRAhj50QMKTZZSaY5d4IsjPKzwJBjEp5AFj13bDiLGtAB8SrlmDclIFmhva9fwlFLGpAEfoFuNSUSKXqmPRCsagdGITkwkmTJOlDCPM8HlbtaABBetwPb9dNbQfG9T+JHDYk+WT9ssKumxHHyEP/sp4dWIQYCwVJhhxd11asxgFC4LoUJBlzLPJC9HfbUiaH5BdRkWTOwVt8HVbEQhwoQG4LTpBkFprgxP8sxCFCjieoI5V6FDLtHaFlOECI/LQ1IUcuBoBlXo8gm6BeL1RCjow7Wnf+yRpeywnQTzsXCpIcOCY+u88GwigUob6znYIkJ47ZHgyrpn8QR4cknCTJFQSrfxg5zC750JVqqFwOBB37/mrwHViE2HkIEqfcOaa4ZMDQOzAIOZ5CQZJDB8L8T0UOE0t4fpWQI6cO3OBz0ybi6IB4g1i6rYVmhtGH/21Uhwh5xwrpds4d3ddXjekAIby+W0GiAceSL5oxEQeH9OKSKhItOGjrbw0YhQiQ5yBBohVowpN6DOcQoR4/YQ2lqWHGO0ODOUCI7nQKk3YcK7xlqh0YHdBbK8QkWuuAoNjjJxOFURil23sUqYUc+UvEzx0wjkOEHCal25qD5njQLB/SA0F6cI4aSpMDwNofRZA5KF67BMmT5hwM7Qf8GVYGTFAO6E9khScNLTqmvGIw1D8EQuKmVJBo07Hg07pPxNEhiU+SaBUioE2/iBw6l/hNg9R2XX0k4kf/o+0dWITw6KR0W8tQAN03hVp2gBAxKnyiQtOOJV/RbxSCDki0lG6nd3x8O90m4gLkt4sd2DZEM0Hn6b0adYiQP732wLZBhhnviZ6htChxRJyYbpsBQljpXR3uwChA7GL7inGaCNr3/Fl7kAgV3J7wpGEYaPIL+rQ2iBBeMPmwKe0/hcz5mL5uEUFBeqxQeNIwjgNgnY/19BSCDsivE/vHwXDNDCMP/jMcFNTP8Q13sMqBbWM5uq6qaCYKASHwXRqSZPv4+HM6eTEKgvSc0oFtwzlws68jhy4kX3M5QWJIaPxj/tXCDixCBY9fQxl3mO7WMPcOEKLCK0wGdSzzRr5fjKJDeqNQkRjV0bLjD/kNo1CAeMekdNvI0Ngz+nIKgRCeMTaBMjY063153IFBkO6bNYkyOASrvRdBeaPeK0o1lBUMbfv8nqsXowL0e9GmMBneMfnFA7lxgJC7WCXdtgDHvLFEPCfpNuhIoonj459mPwpBB1TED2xbSDPDqMOzfrGpCLEblYF022iv5aa5tpphBwihY4UXa9bhWPSFrO7AKEB+URWJhTiat/oqcmRRUmwlChJLcYyXwYtNRcgx1kgsaAhg+juz9SE9cER3osqTht04losS8UpWJqQ3WEViPY7WXX7MCCRCP3KRILEmaOJzejMwiJAHlxplA4n4gxGUNiWJ6bZlQbD6B2nuwOiAiiGuBbW2oWP/31JLxAXI79+hMFmYY4rLK6k4RAgKVpBYmmO+p+r/YhQEiYskidVBuNGXdYYECDcq11BWOBCMPjK62LRav89Qe2ANHZ7R//HxG+qViIMQ3qByYNsKHYu/Uo8P6aFDksWTJBYJNccuNq0OjwLy3BxRVtpNDJ0n9wwLAqEe9ArptmU6ZrpLPREHR1SIisQ+HSu+rRaFoAN6u0hPYluJ+K4/KzyFCFCxayzdtuBmgknO609wgFD/eZMkhRy2C8310FCJODgkP1cSZb3QEBebDnktaABW3cww4qA/QxERcgeBwq5ryY6prqiEBG4qBYlFO+Z/nZzmJQBWUDggeBoAADB9AJ0BKoABgAE+kUaeSyWjqaKkdBoRMBIJTd6lhSDUEEgabXCjeQ/gnU2sT8d3yW7+u/2X9pP6/z8m9PhL+ze7Py7jl+nfv36X9vf92/2fsR/SH+K/P////YB/FP5R/yf7N/l+wP5gP59/j/3U///xIf6L9gPct/hP9h7AH+G/8XrSeo16An8t/2fppfu18Gv9T/3f7sf+r5EP2k////m9wD/6+2N/AOnv6rf6f8XfDf7cfZfWAXy7ie0H2KymwdzImVJtunnh8CfSk/eH2TSKaBxwxmH2TKADurtdWsMl8qYGT/JdTcqK+AShPI0DjhCUZTw4viBKPy1RH7m4z/mFlYWzxwxq83Rqkv+f0AINEVyeZIW4UQDP2spWHNsUV5tXmhl76cNfdgRgJQf73gqbasOVyLZ9Y0ChoHGuP2U2hYIPJNxLQSXzgJxddPGk4d0TlDKmz36mwYxMkYMFaFjlC+ORQa0kCdoQrIpnvaL5YahIQ4t+Rcfk3bVjp7inC6K/58uNf3YpLXJM5KiIgfs0cQPs+aWIrt8JWA+ZBxzlr2ymFtHa55KMa35d2XQWQZZ7yRrvNNAGPMN4EI1sZS1NWkVWf5R9wg3d5jw6BqbXnjO9BPYC0JLdg/LX8sfDZc83+vilbVPubhj4+uxPnv1nilGjUqClavynCyQjPY2MryFV3/kXUtdUF09TAaDT/+DlOOl4fSR6Rzohm+OdqsWyl0fgcofHNnVmMT+p6iqkVF+fjPrOmTq37NC0YbF+/t1lDhyi5xqy1GFe7vCKPNTQlEYRlVHFOaVIEt+OMQ9fi7/X323HlxqAZzF+z7DuYVRDiIfAofycrUFRZkXTXbGgaqRTsjGJHHSEKpzJKZPngK0e8JCVw3E5S2u+ciU9n0+/70p9S8qzvnbN34Ei26ULzXxRPd+Q1Juh/j74lHaehuUrZM8OOfi+FmG70evwsrg/VeTHO3VobMZ13+rzYdcOLFEPNct8RXfBCHfUNGCeCOlZIWqHzhSMVvVaMDgb7Jg9vK+0GWvIC3P85BPpgaH+c321mul8RXF286vQkNR7lb2//7PMhRGMPwlJNXft43Mi0iAs4gOcCjEuel8BbdCSDGVnj15wCTX6uqXmvORh0L809ZDSQBgLWJr8Vi48ir1NkzItrtHQHAqd/d9ssHG7HpmZ6Pzg4/zzgU2J6VaeF25Jp0Tf/ynNJRn4E9xr8MH14bAc/fm1elDIaOe8l08Eb+TU+qNnjhjQZGr9AIoJ5utYCRmGH5Wo210ZKWANBtXm7xKOjux8m1SorT47ZVLjEt+I2mgccMavN3iUhK6IaVx5x8yaU1ARu+6NVlBI0BAAAP7iOYAH9vUSEdWeqAiLGCktPBUvG2PcPi3FLpA/8oVJoSzwrL0ko/WrQxOO/VwP1MRyXMGdoPKzverePWUw968TP+ccAkFOQCXe/D8KtC4CsHcDpzF+IoXWG1/OiWtPm5/gopDyBvxE6tR+lRt+6aze/J+xPAg7Sj4zIHyb8AwwO3eSi9emcX5xIRNL48HNS6C9rLv+n/m45ye8/XMNsfFN1esz493BnA5E9qY7fq2mzxMoKlBrF7gywg5K8DJmq+f+3XQsOCM9hFGbVsNZ8SYdx7o57WPG/VR1Llpb/ZvKqQL+IaMqslLBpGib7/rNRABfTswRhcVXWpaUWJogYbO9kPprT73qj1CGXpyRPwgM96wEY+4B3pq+i20K0kja2VvRTqP/IBpFaJCZWAmngWsOLDL0Hu4m5YmcIo4uu6lCrm8hU55+nmABOxiaBHdRTYcdWQDYi6XrZ0RRGT0eLZXNcab34S6V0zUlzFZI2jur5FY5tFnEwx8WlnL2oqSwf8+HWvh2wllb1Bbgcx2Zip81C6aOmJCcVH7dDOt/KnS3S4EWT8v5KtNLUBbq2Quzrmd3CuYHgAAAPuwHF2FR1Tyfwj5X0UUwXEYhKJ+BqWuVrUG+2g7wFLwtIxzt0VqehR2LPQfXdqqxR1xJf7IE1tnnzLMOcr75RnuZsWDbvA6jxbTOhgxvzKch3GyrIohMw55AhmZPCXQOLjMftrmVWNte5lYjDed7inN2mSK2K6uF19E5DQpC8y8hTjJWgDrlOvECaIB2/2E8x/P9Zkk+7UXtqj6Hib5L+KAOjFV/nDGG/k2xRqyHhnRX5uTj3EggiVbHZK+iKaaXGxnFi/vPF4ibmAAFjPf8LXiG6KwA+W5vhVblpYuJYA0MFObhdiGUvrnwZd6SyRrHggb/Am6WwHewstxYnL58DpJmg0cALNCg1b374CpscxE/MCspzW/iKEIdnC95cX2ovwaRUPfEQ5eGcu0RvNDq/WCX7wvAnpCAqq9icHTtBYMaCKA0RBNBNo7Nr+dD3e8VTOZfiIFOR+E9XNxcmUtSdhJ9GaLQa/a8NUO+v7k6iM+bHas/l0VBUAhE6ZAZ2FghBz+yAwau8PU81P1+hpMtmhBgkK3C63SYqNzUvGM1f38gYiJCwAzRWvHZbxIrS0tuR1BgFmrfusgUBdtibGnMcYOn/ojwegDOS+OIh4GnLPbKXU1XZWD2pC92CIzW5/QE7aWIg9fIC5TTercfUf7Lg5XSZ03Oyjdz2OeQWGATAtFdK0tBS+qmu30uVMK9hhSUtcIaTBYBVqjLgOIS8ndIK3B0lj0Nfc1COjF8LjIblqnIax0nL5gCnXqla8qd19zlIjYPYNqcOCAGgvXUSCs+hPuQHPqy6ulCWFlTj/41fLXGXQm4bSmhMC7hD3vQk160Im7nARZeEPaCEW3I3+1/oATy9r60eWesspcJd+BP341FxsqLFm98WANvlxXcfZOeXOcJsnbDBHBBfysuhCt0I5Lc+pAmTWgFg8rss5VhwLfBNbQInO78uwTd265jfG8rEzNQaoUESHRxsNVh6DZZxPERr9QWNcYHy0ll4pAHV8zOvF58tN4DaEv2oxVVo/nBTG8wKo0hJL3Xx32zaH6dZEPggxVSTi6wGhPlddKrJ4XA2To+ur585NEQGh1BNx6f/wA4sMRqU/v+Nctx22d6Ng970JNdwj2URML5eRUKDhdv2MCjLcb4yzJO/pzhNXARAGjKczumu5XDZrh5C6LEObLntMIsbRQz9b4voipB88aWw2NiGMyb0sukEpWsv0jSSQeua3Kp3FZKVR91oYsstSxT9d0jmwrkVeKL+cdjOEnDxP7LAQFEGJHQz8cmR2YxgFRlkmxl5rWyvh9STxBd6GvJ1bDFwlCveSC1xHFow/7qCuaWKLP0TlmSZzz3SZ0FHa+VzCXnEAwDR/Lg9jpX6au9Z/UpJxnTMgDqu6ouFfkyT1hURQLpQvnIIIJEiuPm160AahEj9DtsfMyraB29iVV80rRBa2al5lbrq/sYuEuIWjMBGA1uKlA+B32RD+cqp0wI/jTunRKCiLKz7z4vRJYhuVROE+/fBqNwfhC01fpDWimFsMMVkt1KiJq+u/mu4lAAkOxBLadmnZVyjfm+CuRMdGLOfx+nUT6ctG/IZks6UvuegWVzZo7wpLpln9NF7vdC3alf889YvGu5rHiBujdDRB8tBy+uh8Sb4WKTeY87OwhAaaVajUDhIA9txDmxzU40xwkpwJb5EUMYVOG51NNvkKYd4R2nC28bikyOxuLQ/JbsGutGqs4r9kdT6FbDI9CQ5+5TevWTDZnYkz57e+0fnoobfGUNQFBxTm6zC88u9KWbctuLIA8y+ALvZwhDzSRm21WhQ/Z6CVt06UjhIVS9RIiByKrOVAw1xldRkQi19d8ivAMUwkuH22FtEl4lawRgs87mRGcBPKl9SJFyfXdCjTAMKAKfVkvJxN83jhgHg1ZpoYG/H/fnepycrvvGIIbqfLPPpuuHi081gKfjPZYMYXuP9Ezo3c15wzHeMk5+IbDmnosDQ6rfgI4CHiJaJWwmmLlPSmfpA7G05n6xWlV7u+lBIXlSb2P6qAqn5Qyp8yATJoN5CILdUW6PiJhJ/LG9yXB0m2LCzfF0opW+cffUQ/1I9BRRLfBS+Q/FW8FQEy9cnHZQ+GOiz1DVAObHbgAOsJQJBuO/Zp78MkWMNZ3ZVHSRlj8q8OtsLfaKDqdTDNcSVMR/m96l55qhQXz3gomd0yqm1QM60HidmmqVeAIwFryu1Nswqa3xSmXdCAhHZ7pypyL5Rid9eIo9zQQ+5ptCXNEKpXgyr9N/SotkT++DunUXqo8sMRu5JKh22OwUYJnhpGVlJZ/DTgsW2haWyA0xq79sIP63D5CRvz9D2+e1fwBKS19ewKQTlXUGC+BqBECFrh13T2rBODj90Ga8jbn8o9B42NFRkhZF0rq9KPxHAhnGANhBO5qwDJBNfe3sh73YLMM9yu+ngvGyZizEdDg1GP6KIkut039JAVBrG80xWSd5H7obbdfurA9/wy/kneQrg9TXGrVAIVB+Pt/zH2E54v7r8ZcYIDdVONC2DoiLXs8kIJi0nXb95HTt79KcwIJzYDf//wycHN8Ak9TKLh5n9tphhnIPvPnGhBInYFvNFOPggfoQX3ObZxkWZ7sxSnViq6zVpJjFbMt2xQWvJdewdg+4CorW1bCIKXRI9LqIAqPq/34yHul79S7QzHqvC86ZFQl2z3/BrSXVSlTSH6AFfqQwjgV+ZjAeL8CLXf+ubie88SGA++03j1Lublj4FNwY7D3vblSj7PypNL5JUxhfOg85Xy+QrPxs+migF+96Srdkcy7N+1z5GQ9L1PmNCxRtL8ko5/vj5RmBBzNLZbOCr30k+RSnlnJhmZ6T8pQc3xUkW5mz73L/zqj5C1yesBWjYlpSiJT+xASaSJY0UQ6hNkuSuC7zz6Bm9tmLtdD1KNeXIFpzl5N8TlEfKIT2I9pt1/SRMg0AwZaxgAh5/P6rYuyo/p6SL6mxm7K6xkakpS0VY92zUJ6fEURsibpw1gkmXtnVYgRDQMFCPAf+/e69iRQWx/G5ZFQ+mBfR2eUsxh9qACxD4ifrUcakn3v79Jp0LrMhTffKBdj+AGBNXwXEQpiZ9qAlCGfD62UB645+9O3OnSem64eVa/vHJFcCO1qcT1SFdezIEuWdJYj4w7Odxi3g0HNjC9t5KnQJVU6fx4y+bTfwtGvueVX6m8OnTLgwrJqh46yrtAln/6exu8V+bHxIaJJQrjcvJzJhjzE8tZukV0U6j7oRi+syOGH+ankqZljcO87ugr7CJETNgp59AV8NtDRX/FR65G16WMrz8jQ+DirD520aNgFE9589qxUuFabP1yKLQ1mVrFUlEtzJIysIoadKQW80A6Dljs/7ad/HOl3+Xtkf69KPzmPVNDuAMMQU85fjQrBONGMadBoegUHZ6lEY9Z44a4fFzirnCLM79tcnGBP+g8g40uK9YAqddASm1Gv3EN1QRxX7Uaew073uAVfPpl7X5Qaq6ylyBEVhWRItPfJUj2qjH4sW/LdtSjriGZeXBUGqFnDm15bmX63VytyeujqBcs5qtB7OC4wBc4zyj+iGnEU8evutZUZUhutnorOGd26d1JFfmAFlWj16WQ3xhvYf2fF71bQgkC/SKU86R8FjgzAi6raA5AcDQSjjN3BB3UIqbNFaAXvLxuvFxrDq/MtC2sjPAj7v03Inq2alMUpbdnA71TbdvrnMLoRv9mfDFO6WiiDCq83ZacJikz2UoNjfS/gTH3BPILfnH5BjQ4Hk919yKRfBzxFg9HCpFBUluVdaav+RPTNEguywCzrL6/9ox8OpaFYHvEsozmMs3kFGAd6Fh65J1PEcIgJv3FQCZ5YwRTNmGrPZ3/Ea4mNdlbghg8ISwGBjn7RWS2Pt3Si/gpMBxOmGfDz/wCJ1BwJE7zx/nWQQE70h1u8/pH1dFLLxLFHIlm3obJuTJZLkifowlKs7t6jkFCrHnZ8qnuDfXE22sJpOtpgztW96mlhHkHHUDjvDwFkWAQ2y0ud1rzxcBwtmbxeBLgQqUY3P9k4GZs4PtNmtNZTn8C9HAdVo+//uGa6gsvIKgAlnKTHFMfGPjEkp+7Jk0J9ihut36Cr+cYRS/mxEpECvIFF/iKvp9ve6lpx0u4fVkgHU//ZJUMsg1pSKroJs4r26us4xH/Kyw4YYdvLdD1oHi2mc5Vs50UFcVK82V23F57X8Az9nxVVdZb9LJQeP8al41WcIFHPwOtepAEmjbbFew0M6xkMh9zhgcOjcERu8QHQ6fePnZTnlDiSsmwA+ASpgJ6kXHJBCknEB69G4QCjCa1Tw+2+215/rhZ34uFLELwJYUc4Wnl7/KqG0eiCCNYWbMUXIW1Jk2r/cuh2gh/076nW0ULMYNgVxSEVUqHgYZEJI40Ok8hsMZuPi3w29okySffWCt54ZgvMqkJMCZflUJRBMSCheRe+vJxh6T7CFqDGyBP+6Z0Lrsv6ChPgeND6lV//K5Qi3pmZxA3WE9oeUfKq6P226fdKVi4DHYcMlRoXjQiNPSL5/wpL4Hupam4SQRF6U9H4xRfIoPhwIgLKSClJCvW1QZCPS8lV7p5euLuuntfVxhTArJQRto5S5kE+o3hWOVCHQd0MOfiXJuR6VAPcvleefKBOSq0lPWtc7Zt+zEpMgb7FRPkWNB7m6hH1jcqBUD1MmOjQ71qMIjKia8vLJy/pHhWR650uMqPsKvkd35yQaZnIbg/FU/IwNwaXat7jdhsy5M/OXg0JMHbrlDtevNWECKNBotUWYLXddsKmV1IyUv7WhQN0dMMxFm/eT7XA3ZvXoypR6P08XKAMjn2K/EZhFphIKxzRDWNlO4yExLAQ8InR/jgJH9YXsmoiIpFuAWr7C6iJq+GEwprGZzroKRbQFsvC9l6leRRmB8Jmuczb30jv2N5s5bAD7vKQKVUqeEfrgzZWTA2vtwMWMXTlcNjSDNMRtfMTBz32PgcPQtxEnKTIO5fTwzN/RhZidqydpx+oU3i+sHOI+nJjmxFtRRuOA46HYrG9fb1A0opZsJH/dvzIWHjJt3GbkXVB6CvN+bCyAqF9YyyPtPEV2MvvVPwuvjXb8caArd/gt26aBlXeuYQRDZzrxHPOtPCS25tTSHOaDfUiIcAmw0uqMs6A6pSBAk+MI35VHXSbs0kqLzZrvDaP3i1u5zF/kJkGBL2u+PubPI4+tqdx+JXZVpZno8DO0lU5aygnUDiVXz0A7dm/eLvOc4/jQZ7DRoQhkKmrQTlKrCTzm2zXFkHWpTMFWUJvEyZdjGIN5z7reCdi0E2RWFTZDfH2wDi0cfEguEDlX6mne79eU8LNtPpb39kVmRyNCsyDKRLNF78o4zPPDZkvSCuvW9yBIAF7Dm6nYdV+x5oUihhzMa+KHxoE5vAG3AfjIRkAE2ZFsVnW0IsvWr3XHu2RaEbJ0ovVSrbN7AiEBMcJdh6EBNZn/jnLNMexORMvVwZLqcD6EdwD1xgWPnDfIcoYTRxbROODmY68+YPeKA6OFFHMR/BfLmDEkzpXf9+6JA2QXeHVDJAT9GpyFVLdyRdNjojUha83D7kbBptFSKyGH5P8aavuSlaYbszlp+cvtqI86BrYPzBMX1Yop2TW0dg6+FWYcWPeav9u8uuMK7uQ0YbUjm7RQCo7f/xPiC4XABp2gaHlSX3T4/yFN9A8VFJxH6ATwY+2mUN8q6gXp3KL8Np7ucsadn4TKDtth+xVD46zPJV6ATQStdFYCLWpFvfQGCl6Jz4P2fxAzXQeK5zktreiXBSdePFtlH1gy7muLz3gYOZqIblnW0IoL90aXWhrPHohFywhOxXiUTLMm3Uhrs6ZPaejUs/tGZpVvo75Xr9lgQ/lpb/PMuQOGm4rI9SnFxNKYKqb1rF1MTCx3Q9cr2fcOFtul+iZpo8FrG3AVbo8kTxuY55X0JL20a47YJ1N8IVdncd1KGZ5D1ybnjieVpm2mcK05sydP8QEi2MiFvsxQCPEy46M9dRUwLxnuz6RoyGPHH0Tl57XGTSwABNCzkr4maZyG76ssC7U5seeOP5lXhM6tlALBxRBsQGF/cyqKDm3GgTzxh8DkuifS5y/dt+1kZCwz3l8SWHonTFKHETNhGPFKCb1L3wE1h2DUzict5yFjj9i0ULofFlObssPuyVb4BHzOx1JDs10IzBn7qTMKqU27eDhe2POeNk2bdXObm44WYPiFZnjZsZq59P3k5xRg528mfuKwgYEBfO1PmhHav232muYUdP2uPIeSXOAZiqjpUKC8YuLjrW3yNP/pGZl49Q3EvA/KllLJfrxrkVjYdb1fAAASax1odPssTnitW1watkFq99pLQaIGs0bLUfsoCe4pXvAO9sU32bMNjfnEn5Kj8ERIi8+hl4lkSWHvQUtXghkEpPXI9UxUj7GaBIkQGP2jtJle/Ihn8mg1zVx9Ni7V+ZKn90xrZyFpcdSCAlWbr1RMrnHYvBHhCjfPCRdzOa/0WHRC3WoN+NwtFsRCZBVMX6oMlCdyhaYYiPnPpCZ2oNLbDIihQvCLqm3d71KyPWNebsW2uUquv8rXjn4dRYQu9ogfMq1ziNEsJZbYBjuMfJiZZoAAC2pekaLjsixKRloctPxvyV4FADmjw75ui+hw/uug/V2b4jh4dQ6s0b2p+4pl7ffnyyd9eDsCWpzyoHp4mrB04LgQ7TXqOt/Ke2Lm3OQ1doWVRNaOqDH0q0grfrpdSLVADFe797PRkvrABop1bNnoKP8xYzYwN7TvURinAv2kpWuG7ds/NrU/BHpvIsbjYy/YKboEuvAz8E5Brk3/nNiN/EEfcMcI/HRZBApNjFfVS82B/ujD3AAAAACioUCkgWL1dktesEHeApHhgtMysyd9vLjeTFctvOw4wNJKCNBoYpz8ZWUzLiEqzKfVsI5zfCQg0MuclO26SSxTIHGpjVXjgtAicfho0pnb01ZJ5DiclG71S0tq1yWJRFL5yq7w9fJ/raV/yxMuD5SbEFI2g70nUnuEs0e7lV6Vkox2NCC6Cym2ZXktgNbqho163aquQNcU46IVLYZb/OhlJ+i5rLcMZLMjjqgSGj4gtB2P0Kse4PfWbCgmH/k5zVbz5th80r8TGtbCzwAAAAAA;" vertex="1" parent="1">
          <mxGeometry x="320" y="489" width="40" height="40" as="geometry" />
        </mxCell>
        <mxCell id="8PmAt-z4PRsXIaI4Q4uZ-21" value="" style="outlineConnect=0;dashed=0;verticalLabelPosition=bottom;verticalAlign=top;align=center;html=1;shape=mxgraph.aws3.internet_2;fillColor=#D2D3D3;gradientColor=none;" vertex="1" parent="1">
          <mxGeometry x="400" y="496" width="40.5" height="26" as="geometry" />
        </mxCell>
      </root>
    </mxGraphModel>
  </diagram>
</mxfile>
